# xmcd
#
# Track frame offsets:
#	150
#	15517
#	28943
#	44051
#	61282
#	76916
#	88927
#	102331
#	114248
#	124410
#	136648
#	149550
#	160573
#	173339
#	184233
#	194655
#	209071
#	221906
#	236379
#	251764
#	265264
#	279169
#	296063
#
# Disc length: 4194 seconds
#
# Revision: 1
# Processed by: cddbd v1.5.1PL2 Copyright (c) Steve Scherf et al.
# Submitted via: audiograbber 1.81.01
#
DISCID=5b106017
DTITLE=Buck Clayton - Classics
DYEAR=1900
DGENRE=
TTITLE0=Sweethearts On Parade
TTITLE1=Patricia's Blues
TTITLE2=Special B.C.
TTITLE3=She's Funny That Way
TTITLE4=Lazy River
TTITLE5=Some Of These Days
TTITLE6=Ferme La Bouche
TTITLE7=Manneken Piss Boogie
TTITLE8=How About Me
TTITLE9=Wham
TTITLE10=Hot Dog
TTITLE11=There's Nothing Like A Woman
TTITLE12=Have You Got Any Money
TTITLE13=Boogie Woogie Drummer
TTITLE14=Bird Song
TTITLE15=Qui ?
TTITLE16=Relax Alix
TTITLE17=Bonds Et Rebonds
TTITLE18=Blues En Cuivres
TTITLE19=Pulsation Du Rythme
TTITLE20=Chocs Sonores
TTITLE21=Sahiva Boogie
TTITLE22=Prominade Blues
EXTD=
EXTT0=
EXTT1=
EXTT2=
EXTT3=
EXTT4=
EXTT5=
EXTT6=
EXTT7=
EXTT8=
EXTT9=
EXTT10=
EXTT11=
EXTT12=
EXTT13=
EXTT14=
EXTT15=
EXTT16=
EXTT17=
EXTT18=
EXTT19=
EXTT20=
EXTT21=
EXTT22=
PLAYORDER=
